# Blender v2.75 (sub 0) OBJ File: ''
# www.blender.org
mtllib ShittyCrossbow.mtl
o Cube
v 1.000000 -1.000000 -1.000000
v 1.000000 -1.000000 1.000000
v -1.000000 -1.000000 1.000000
v -1.000000 -1.000000 -1.000000
v 1.000000 1.000000 -0.999999
v 0.999999 1.000000 1.000001
v -1.000000 1.000000 1.000000
v -1.000000 1.000000 -1.000000
v -3.090192 -1.000000 0.999999
v -3.090191 -1.000000 -1.000001
v -3.090192 1.000000 0.999999
v -3.090192 1.000000 -1.000000
v 0.277025 -0.194266 7.051018
v 0.277025 0.194266 7.051017
v 0.277025 -0.194266 -7.051016
v 0.277025 0.194266 -7.051014
v -0.129028 -0.194266 7.051015
v -0.129028 0.194265 7.051014
v -0.129028 -0.194266 -7.051020
v -0.129028 0.194265 -7.051017
v 1.978444 -1.000000 -0.999999
v 1.978444 -1.000000 1.000001
v 1.978445 1.000000 -0.999999
v 1.978443 1.000000 1.000001
v 2.357803 -1.142183 -0.999999
v 2.357803 -1.142183 1.000001
v 3.448947 0.533944 -0.999999
v 3.448947 0.533946 1.000001
v 6.705657 -3.972599 -0.999998
v 6.705657 -3.972599 1.000002
v 7.796801 -2.296472 -0.999998
v 7.796801 -2.296470 1.000002
vn 0.000000 -1.000000 0.000000
vn 0.000000 1.000000 0.000000
vn -0.000000 -0.000000 1.000000
vn 0.000000 0.000000 -1.000000
vn -1.000000 -0.000000 -0.000000
vn 0.978400 -0.000000 0.206500
vn 0.000000 -0.991300 -0.132000
vn 0.000000 0.991300 -0.132000
vn -0.898200 0.000000 -0.439600
vn -0.000000 -0.991300 0.132000
vn -0.000000 0.991300 0.132000
vn 0.978400 0.000000 -0.206500
vn -0.898200 0.000000 0.439600
vn 0.545600 0.838100 -0.000000
vn -0.351000 -0.936400 0.000000
vn 0.302100 0.953300 -0.000000
vn 0.838100 -0.545600 0.000000
vn -0.545600 -0.838100 0.000000
usemtl Material
s off
f 1//1 2//1 3//1 4//1
f 5//2 8//2 7//2 6//2
f 5//2 6//2 24//2 23//2
f 2//3 6//3 7//3 3//3
f 7//2 8//2 12//2 11//2
f 5//4 1//4 4//4 8//4
f 9//5 11//5 12//5 10//5
f 8//6 4//6 15//6 16//6
f 4//1 3//1 9//1 10//1
f 4//7 10//7 19//7 15//7
f 16//4 15//4 19//4 20//4
f 13//3 14//3 18//3 17//3
f 12//8 8//8 16//8 20//8
f 10//9 12//9 20//9 19//9
f 9//10 3//10 13//10 17//10
f 7//11 11//11 18//11 14//11
f 3//12 7//12 14//12 13//12
f 11//13 9//13 17//13 18//13
f 24//3 22//3 26//3 28//3
f 6//3 2//3 22//3 24//3
f 1//4 5//4 23//4 21//4
f 2//1 1//1 21//1 22//1
f 27//14 28//14 32//14 31//14
f 22//15 21//15 25//15 26//15
f 23//16 24//16 28//16 27//16
f 21//4 23//4 27//4 25//4
f 29//17 31//17 32//17 30//17
f 25//4 27//4 31//4 29//4
f 28//3 26//3 30//3 32//3
f 26//18 25//18 29//18 30//18
